<?xml version="1.0" encoding="UTF-8"?>
<!DOCTYPE svg PUBLIC "-//W3C//DTD SVG 1.1//EN" "http://www.w3.org/Graphics/SVG/1.1/DTD/svg11.dtd">
<svg xmlns="http://www.w3.org/2000/svg" version="1.1" width="1167px" height="200px" style="shape-rendering:geometricPrecision; text-rendering:geometricPrecision; image-rendering:optimizeQuality; fill-rule:evenodd; clip-rule:evenodd" xmlns:xlink="http://www.w3.org/1999/xlink">
<g><path style="opacity:0.836" fill="#2462ea" d="M 158.5,47.5 C 154.604,46.6063 151.938,44.273 150.5,40.5C 103.499,40.6667 56.4988,40.5 9.5,40C 7.84442,38.2028 6.84442,36.0361 6.5,33.5C 5.31116,32.5713 3.97782,32.238 2.5,32.5C 2.5,21.8333 2.5,11.1667 2.5,0.5C 64.5009,0.333338 126.501,0.500005 188.5,1C 189.435,3.3806 189.768,5.8806 189.5,8.5C 194.511,8.33407 199.511,8.50074 204.5,9C 205.435,11.3806 205.768,13.8806 205.5,16.5C 208.167,16.5 210.833,16.5 213.5,16.5C 213.5,19.1667 213.5,21.8333 213.5,24.5C 216.167,24.5 218.833,24.5 221.5,24.5C 221.5,27.1667 221.5,29.8333 221.5,32.5C 224.119,32.2317 226.619,32.565 229,33.5C 229.499,38.4889 229.666,43.4889 229.5,48.5C 232.167,48.5 234.833,48.5 237.5,48.5C 237.5,56.1667 237.5,63.8333 237.5,71.5C 223.199,72.6156 208.866,72.7822 194.5,72C 193.062,71.7811 191.729,71.2811 190.5,70.5C 189.894,68.2906 189.227,66.124 188.5,64C 186.527,63.5045 184.527,63.3379 182.5,63.5C 182.5,61.1667 182.5,58.8333 182.5,56.5C 179.794,56.4249 177.127,56.0916 174.5,55.5C 174.5,53.1667 174.5,50.8333 174.5,48.5C 169.073,48.7825 163.74,48.4491 158.5,47.5 Z"/></g>
<g><path style="opacity:0.942" fill="#424242" d="M 551.5,13.5 C 567.149,13.6417 573.315,21.3083 570,36.5C 568.895,39.9371 566.728,42.4371 563.5,44C 544.395,48.8999 536.228,41.7332 539,22.5C 541.917,17.6369 546.083,14.6369 551.5,13.5 Z"/></g>
<g><path style="opacity:0.974" fill="#424242" d="M 687.5,15.5 C 696.833,15.5 706.167,15.5 715.5,15.5C 715.167,42.8415 715.5,70.1748 716.5,97.5C 726.702,84.2815 737.035,71.1149 747.5,58C 756.827,57.5002 766.161,57.3335 775.5,57.5C 775.657,58.8734 775.49,60.2068 775,61.5C 763.102,76.3937 751.602,91.5604 740.5,107C 752.872,124.238 765.372,141.405 778,158.5C 779.009,160.025 779.509,161.692 779.5,163.5C 769.478,163.832 759.478,163.499 749.5,162.5C 738.852,147.858 727.852,133.524 716.5,119.5C 715.501,134.152 715.167,148.818 715.5,163.5C 706.167,163.5 696.833,163.5 687.5,163.5C 687.5,114.167 687.5,64.8333 687.5,15.5 Z"/></g>
<g><path style="opacity:0.968" fill="#424242" d="M 334.5,21.5 C 385.509,18.6742 411.176,42.8409 411.5,94C 413.139,131.29 396.139,154.79 360.5,164.5C 365.924,171.461 373.091,174.794 382,174.5C 385.973,174.567 389.806,173.901 393.5,172.5C 394.167,172.833 394.833,173.167 395.5,173.5C 397.59,181.038 398.923,188.704 399.5,196.5C 382.766,200.619 366.766,198.786 351.5,191C 342.48,184.292 336.147,175.625 332.5,165C 303.476,159.308 286.643,141.808 282,112.5C 278.898,93.3902 280.565,74.7236 287,56.5C 296.643,36.4289 312.476,24.7623 334.5,21.5 Z M 337.5,46.5 C 361.681,43.49 376.181,53.8233 381,77.5C 383.627,93.188 382.294,108.521 377,123.5C 367.552,138.462 354.052,143.962 336.5,140C 322.811,136.31 314.644,127.476 312,113.5C 310.478,102.21 310.144,90.8771 311,79.5C 312.775,62.5217 321.608,51.5217 337.5,46.5 Z"/></g>
<g><path style="opacity:0.965" fill="#424242" d="M 834.5,21.5 C 855.619,18.4858 874.452,23.4858 891,36.5C 895.645,41.6198 899.145,47.4532 901.5,54C 894.292,58.436 886.958,62.6027 879.5,66.5C 876.579,63.7103 874.079,60.377 872,56.5C 867.724,51.2276 862.224,48.0609 855.5,47C 830.913,43.1946 816.08,53.3613 811,77.5C 808.542,92.0857 809.542,106.419 814,120.5C 820.239,134.382 831.073,141.382 846.5,141.5C 864.441,140.893 875.108,131.893 878.5,114.5C 886.42,116.953 894.087,120.286 901.5,124.5C 899.28,141.353 890.28,153.519 874.5,161C 851.009,169.09 828.342,167.09 806.5,155C 792.837,144.52 784.67,130.687 782,113.5C 778.793,94.0327 780.46,75.0327 787,56.5C 796.643,36.4289 812.476,24.7623 834.5,21.5 Z"/></g>
<g><path style="opacity:0.004" fill="#0000ff" d="M 150.5,40.5 C 151.938,44.273 154.604,46.6063 158.5,47.5C 152.716,48.7157 150.049,46.3823 150.5,40.5 Z"/></g>
<g><path style="opacity:0.963" fill="#424242" d="M 626.5,55.5 C 640.822,54.0412 654.156,56.8745 666.5,64C 671.777,68.0651 675.444,73.2317 677.5,79.5C 672.171,85.351 665.838,90.0177 658.5,93.5C 655.497,90.6914 652.831,87.5247 650.5,84C 643.437,79.7202 635.77,78.3869 627.5,80C 618.649,83.5231 613.482,90.0231 612,99.5C 610.212,109.3 610.879,118.966 614,128.5C 621.309,141.828 632.142,145.661 646.5,140C 652.265,136.297 655.932,131.13 657.5,124.5C 665.878,126.521 673.212,130.354 679.5,136C 671.789,156.447 656.956,166.613 635,166.5C 600.55,163.88 583.05,145.213 582.5,110.5C 582.554,80.1427 597.221,61.8094 626.5,55.5 Z"/></g>
<g><path style="opacity:0.96" fill="#424242" d="M 944.5,55.5 C 956.68,54.321 968.347,56.1543 979.5,61C 987.757,67.0084 992.257,75.1751 993,85.5C 993.333,103.5 993.667,121.5 994,139.5C 994.5,140.667 995.333,141.5 996.5,142C 999.531,142.495 1002.53,142.329 1005.5,141.5C 1005.9,147.528 1006.57,153.528 1007.5,159.5C 1006.27,162.464 1003.93,163.964 1000.5,164C 993.766,164.829 987.099,164.496 980.5,163C 974.546,160.214 970.546,155.714 968.5,149.5C 961.957,160.694 952.124,166.36 939,166.5C 917.609,166.108 906.442,155.274 905.5,134C 905.05,120.462 911.05,111.128 923.5,106C 936.116,102.453 948.783,99.12 961.5,96C 967.676,90.9691 968.009,85.6357 962.5,80C 952.971,76.8802 943.637,77.5469 934.5,82C 929.561,85.3831 924.728,88.8831 920,92.5C 915.471,86.9639 911.305,81.1306 907.5,75C 917.673,64.2485 930.006,57.7485 944.5,55.5 Z M 965.5,111.5 C 966.653,117.653 966.82,123.986 966,130.5C 960.262,144.729 950.429,148.563 936.5,142C 931.864,136.204 931.364,130.038 935,123.5C 941.439,119.093 948.606,116.593 956.5,116C 960.035,115.337 963.035,113.837 965.5,111.5 Z"/></g>
<g><path style="opacity:0.004" fill="#0000ff" d="M 101.5,56.5 C 107.183,55.6464 109.849,57.9797 109.5,63.5C 108.062,59.727 105.396,57.3937 101.5,56.5 Z"/></g>
<g><path style="opacity:0.962" fill="#424242" d="M 1062.5,56.5 C 1068.31,56.1224 1073.98,56.789 1079.5,58.5C 1106.79,57.5088 1134.12,57.1755 1161.5,57.5C 1161.94,65.9433 1161.44,74.2767 1160,82.5C 1143.12,101.707 1126.62,121.207 1110.5,141C 1127.83,141.5 1145.16,141.667 1162.5,141.5C 1162.5,148.833 1162.5,156.167 1162.5,163.5C 1134.5,163.5 1106.5,163.5 1078.5,163.5C 1078.33,155.826 1078.5,148.159 1079,140.5C 1094.96,120.873 1111.29,101.54 1128,82.5C 1128.48,81.552 1128.65,80.552 1128.5,79.5C 1112.5,79.5 1096.5,79.5 1080.5,79.5C 1080.66,76.4816 1080.5,73.4816 1080,70.5C 1079.1,74.8342 1078.27,79.1676 1077.5,83.5C 1054.15,78.0005 1042.32,87.3339 1042,111.5C 1041.5,128.83 1041.33,146.163 1041.5,163.5C 1032.5,163.5 1023.5,163.5 1014.5,163.5C 1014.5,128.167 1014.5,92.8333 1014.5,57.5C 1023.5,57.5 1032.5,57.5 1041.5,57.5C 1041.33,62.8437 1041.5,68.1771 1042,73.5C 1046.05,64.2686 1052.88,58.6019 1062.5,56.5 Z"/></g>
<g><path style="opacity:0.972" fill="#424242" d="M 426.5,57.5 C 435.5,57.5 444.5,57.5 453.5,57.5C 453.333,81.169 453.5,104.836 454,128.5C 455.058,138.032 460.391,142.698 470,142.5C 482.116,142.387 489.45,136.387 492,124.5C 493.409,102.199 493.909,79.8653 493.5,57.5C 502.5,57.5 511.5,57.5 520.5,57.5C 520.5,92.8333 520.5,128.167 520.5,163.5C 511.833,163.5 503.167,163.5 494.5,163.5C 494.827,158.456 494.494,153.456 493.5,148.5C 486.242,160.049 475.742,166.049 462,166.5C 441.836,166.997 430.169,157.33 427,137.5C 426.5,110.835 426.333,84.1687 426.5,57.5 Z"/></g>
<g><path style="opacity:0.942" fill="#424242" d="M 540.5,57.5 C 549.833,57.5 559.167,57.5 568.5,57.5C 568.5,92.8333 568.5,128.167 568.5,163.5C 559.167,163.5 549.833,163.5 540.5,163.5C 540.5,128.167 540.5,92.8333 540.5,57.5 Z"/></g>
<g><path style="opacity:0.807" fill="#2562eb" d="M 101.5,56.5 C 105.396,57.3937 108.062,59.727 109.5,63.5C 109.5,66.5 109.5,69.5 109.5,72.5C 106.847,74.155 104.514,76.155 102.5,78.5C 102.5,92.5 102.5,106.5 102.5,120.5C 104.792,120.244 106.959,120.577 109,121.5C 110.309,126.066 110.809,130.733 110.5,135.5C 117.5,133.833 120.167,136.5 118.5,143.5C 121.279,143.279 123.946,143.612 126.5,144.5C 127.6,145.558 128.934,146.392 130.5,147C 131.399,148.652 132.399,150.152 133.5,151.5C 144.5,151.5 155.5,151.5 166.5,151.5C 169.122,149.218 171.788,146.885 174.5,144.5C 176.698,143.835 179.031,143.168 181.5,142.5C 182.106,140.291 182.773,138.124 183.5,136C 175.173,135.5 166.84,135.334 158.5,135.5C 158.176,119.922 158.509,104.422 159.5,89C 187.839,88.1668 216.173,88.3335 244.5,89.5C 245.646,101.787 245.813,114.121 245,126.5C 244.617,127.056 244.117,127.389 243.5,127.5C 239.167,127.167 237.167,129.167 237.5,133.5C 237.666,139.176 237.499,144.843 237,150.5C 234.619,151.435 232.119,151.768 229.5,151.5C 229.666,155.846 229.499,160.179 229,164.5C 227.195,167.039 224.695,168.039 221.5,167.5C 223.167,174.5 220.5,177.167 213.5,175.5C 214.825,182.17 212.158,184.836 205.5,183.5C 204.053,184.622 203.053,186.122 202.5,188C 200.685,188.757 199.019,189.59 197.5,190.5C 195.052,191.473 192.385,191.806 189.5,191.5C 187.427,194.576 184.761,196.91 181.5,198.5C 181.5,198.833 181.5,199.167 181.5,199.5C 160.5,199.5 139.5,199.5 118.5,199.5C 118.5,199.167 118.5,198.833 118.5,198.5C 115.889,196.555 113.555,194.222 111.5,191.5C 108.287,191.81 105.287,191.477 102.5,190.5C 102.631,189.761 102.464,189.094 102,188.5C 98.7464,187.256 96.5797,185.589 95.5,183.5C 88.6704,185 85.6704,182.333 86.5,175.5C 80.1667,176.5 77.5,173.833 78.5,167.5C 76.1732,167.335 74.0065,166.669 72,165.5C 70.7748,160.915 70.2748,156.248 70.5,151.5C 67.6062,151.958 65.1062,151.291 63,149.5C 62.6667,143.5 62.3333,137.5 62,131.5C 59.9292,129.088 57.5959,127.088 55,125.5C 54.5003,118.174 54.3337,110.841 54.5,103.5C 49.4889,103.666 44.4889,103.499 39.5,103C 38.565,100.619 38.2317,98.1194 38.5,95.5C 31.5,97.1667 28.8333,94.5 30.5,87.5C 28.1667,87.5 25.8333,87.5 23.5,87.5C 22.1939,77.1735 22.1939,66.8402 23.5,56.5C 49.5,56.5 75.5,56.5 101.5,56.5 Z"/></g>
<g><path style="opacity:0.004" fill="#00fffe" d="M 109.5,72.5 C 108.99,76.6797 106.656,78.6797 102.5,78.5C 104.514,76.155 106.847,74.155 109.5,72.5 Z"/></g>
<g><path style="opacity:0.004" fill="#3be6ff" d="M 243.5,127.5 C 243.167,131.167 241.167,133.167 237.5,133.5C 237.167,129.167 239.167,127.167 243.5,127.5 Z"/></g>
<g><path style="opacity:0.004" fill="#0000ff" d="M 126.5,144.5 C 131.5,144.167 133.833,146.5 133.5,151.5C 132.399,150.152 131.399,148.652 130.5,147C 128.934,146.392 127.6,145.558 126.5,144.5 Z"/></g>
<g><path style="opacity:0.004" fill="#0000ff" d="M 174.5,144.5 C 171.788,146.885 169.122,149.218 166.5,151.5C 166.68,146.401 169.346,144.068 174.5,144.5 Z"/></g>
<g><path style="opacity:0.004" fill="#00fffe" d="M 95.5,183.5 C 96.5797,185.589 98.7464,187.256 102,188.5C 102.464,189.094 102.631,189.761 102.5,190.5C 97.8333,190.5 95.5,188.167 95.5,183.5 Z"/></g>
<g><path style="opacity:0.004" fill="#0000ff" d="M 205.5,183.5 C 205.934,189.4 203.268,191.733 197.5,190.5C 199.019,189.59 200.685,188.757 202.5,188C 203.053,186.122 204.053,184.622 205.5,183.5 Z"/></g>
<g><path style="opacity:0.004" fill="#0000ff" d="M 111.5,191.5 C 113.555,194.222 115.889,196.555 118.5,198.5C 113.5,198.833 111.167,196.5 111.5,191.5 Z"/></g>
<g><path style="opacity:0.004" fill="#0000ff" d="M 189.5,191.5 C 189.609,197.002 186.942,199.336 181.5,198.5C 184.761,196.91 187.427,194.576 189.5,191.5 Z"/></g>
</svg>
